<svg xmlns="http://www.w3.org/2000/svg" viewBox="0 0 1569.13 3176.33"><defs><style>.cls-1{isolation:isolate;}.cls-2{fill:#eaa16e;}.cls-3{fill:#ad6036;}.cls-4{opacity:0.55;}.cls-5{fill:#fff;}.cls-6,.cls-8{mix-blend-mode:color-burn;}.cls-6{opacity:0.23;}.cls-7{fill:#770833;}.cls-8{opacity:0.2;}</style></defs><g class="cls-1"><g id="Layer_2" data-name="Layer 2"><g id="Layer_1-2" data-name="Layer 1"><path class="cls-2" d="M1490.82,3092.58a392.54,392.54,0,0,1-158,62.47c-43,6.85-88.58,7-99.25-20-21.33-53.95,18.53-134.5,18.53-134.5L964.81,2290.11c-130.13-349.29-310.33-670.38-507.22-989.21A2572.7,2572.7,0,0,1,323,1054.15c-121.75-256-223.72-518.44-300.65-789-8.32-29.28-6-60.82,7.58-88.07C72.58,91.54,194.66,45.76,194.66,45.76S320.13-6.45,410.22,31.12C436.36,42,457.31,62.61,470.29,87.78c129,250.06,234.09,511.33,320.39,781.43a2571.59,2571.59,0,0,1,70.58,272.06c74.42,367.26,162.56,724.76,306.52,1068.58L1444,2924.65s84.17,31.5,105.51,85.45C1560.21,3037.08,1526.85,3068.2,1490.82,3092.58Z"/><path class="cls-3" d="M1444,2924.65c-34.81,58.29-133.74,91.28-191.91,75.89l-265.81-672.2c58.16,15.39,157.1-17.6,191.9-75.89Z"/><g class="cls-4"><path class="cls-5" d="M1427.19,3112.41a386.93,386.93,0,0,1-59.78,33.21,391.78,391.78,0,0,0,91.63-45.8c36-24.4,69.4-55.51,58.74-82.48-21.33-53.94-105.51-85.44-105.51-85.44L1136,2217.11c-144-343.85-232.12-701.34-306.54-1068.6a2575.87,2575.87,0,0,0-70.59-272.06C672.61,606.35,567.46,345.06,438.48,95c-13-25.15-33.92-45.78-60.06-56.69C288.35.77,162.85,53,162.85,53s-6.08,2.3-16,6.77c36.48-12.44,129.06-38.29,199.8-8.84,26.14,10.9,47.1,31.54,60.05,56.69C535.66,357.64,640.76,619,727.08,889a2578.76,2578.76,0,0,1,70.59,272c74.42,367.27,162.55,724.76,306.49,1068.62l276.26,714.8s84.18,31.5,105.51,85.44C1496.59,3056.9,1463.24,3088,1427.19,3112.41Z"/></g><g class="cls-6"><path class="cls-7" d="M353.57,1040.45A2575.9,2575.9,0,0,0,488.14,1287.2C685,1606,865.23,1927.12,995.35,2276.45l287.33,710.42s-39.87,80.55-18.54,134.49c6.41,16.23,25.45,22.62,49,23.69-9.51-3.93-16.57-10-19.86-18.81-20.3-54.34,21.11-134.11,21.11-134.11L1041,2276.26c-123.29-351.76-297.19-676.36-487.83-999A2570.22,2570.22,0,0,1,423.43,1028C306.71,769.66,209.86,505.3,138.21,233.28c-7.73-29.47-4.8-60.95,9.32-87.93,14.76-28.21,38.23-51.79,63-70.77C207,76.11,35,152.79,52.92,251.47,129.86,522,231.84,784.42,353.57,1040.45Z"/></g><g class="cls-8"><path class="cls-7" d="M313.65,120.77c16.44,16.12,33.73,31.19,51.27,46L362,163c24,74.83,53.07,147.83,86.05,219.13,11.25,23.68,22.72,47.27,35.74,70.25a1.8,1.8,0,0,0,3.32-1.31c-6.22-25.67-14-50.73-22-75.7-24.7-74.57-53.41-147.72-87.08-218.71a7.62,7.62,0,0,0-2.93-3.79c-9.7-6.09-19.4-12.18-29.31-18s-19.84-11.58-30-17a1.81,1.81,0,0,0-2.11,2.88Z"/><path class="cls-7" d="M250.48,150.26a433,433,0,0,0-4.17,74,831.68,831.68,0,0,0,51.63,124.28c28.66,53.64,32,53.72,15.84-6.26A831.37,831.37,0,0,0,267,217.6l.74,3.3c-1.54-11.86-3.35-23.7-5.56-35.52S257.46,161.69,254,150a1.84,1.84,0,0,0-3.56.23Z"/><path class="cls-7" d="M623.77,722.1c-30.27-58-67.23-116.21-122.65-153.39C452.23,536,386.88,547.42,370.66,609.64c-19,76.4,12.51,172.11,36,245,26.61,78.58,61.21,160.91,132.16,209.87,85.85,57.21,139.78-24.39,124.81-107.66-7.52-50-27.28-97.11-51.76-140.68-20.47-35-84.61-138.89-133.14-100.09-46.66,43.45,9.85,169.67,43.45,210.51a1.79,1.79,0,0,0,2.91-2.08,304.37,304.37,0,0,1-23.43-42.43c-13.32-29.12-23.44-60.26-27.07-92-1.64-15.65-1.75-31.84,2.66-45.86,7.59-23.88,27.38-27.63,46.11-12.05,62.46,50.92,130,192.25,117.54,273.1-10.12,50.83-43.2,69.86-88.42,38.72-38.2-26.65-66-66.62-87.27-108-35.25-77.22-96.08-240-76.09-321.3,6.23-29.77,31.56-50,61.92-47.74,47.33,4.53,83.24,42.78,113.58,77.42a601.77,601.77,0,0,1,55.93,79.4c1,2.06,4.26.32,3.17-1.66Z"/><path class="cls-7" d="M696.39,915.45c19.72,92.73,39.43,208.21-36.19,280.67-10.16,10.1-22.39,18.64-34.13,26.77a1.8,1.8,0,0,0-.39,2.51,1.82,1.82,0,0,0,2,.65c3.56-1.11,7.09-2.38,10.67-3.6,7.16-2.41,14-6,20.76-9.35,76.14-42,90.76-137.12,72.42-215.11-6.71-29.43-16.73-57.94-31.83-83.92a1.8,1.8,0,0,0-2.46-.66,1.83,1.83,0,0,0-.84,2Z"/><path class="cls-7" d="M797.89,1087c4.25,79.83,4.89,159.85,5.56,239.77,0,20.41,2.23,41.13,5.25,61.27,9.45,59.89,25.17,118.55,42,176.57a3738.46,3738.46,0,0,0,168.17,450.75,1.79,1.79,0,0,0,3.33-1.3c-26.76-81.44-87.71-263.25-112.43-342-29.75-94.86-60-190.07-78.92-287.66-3.35-19.48-6-38.59-7-58.11-3.94-80.18-9.08-160.43-22.39-239.72a1.79,1.79,0,0,0-3.55.47Z"/><path class="cls-7" d="M465.18,1156c7.25,27,21.17,51.4,36.34,74.67,25.23,37.29,57,70.5,91.3,99.54l8,6.5c26.24,19,46.66,46.47,64.53,73.67,29.39,45,51.93,94.66,76,142.92,23.84,49,47.51,98.19,72.61,146.85a1.79,1.79,0,0,0,3.29-1.37,2079.89,2079.89,0,0,0-90.85-229C702.25,1419.33,674,1369.49,632,1331.1c-43.49-31.71-84.83-67.27-119.14-108.91-17-20.72-33-42.88-44.29-67.24a1.79,1.79,0,0,0-3.42,1Z"/><path class="cls-7" d="M841.25,1767.29c20.57,66.22,46.25,133.75,71.58,198.45,13,32.63,26.23,65.21,40.11,97.51s28,64.51,43.39,96.22a1.07,1.07,0,0,0,1.44.5,1.1,1.1,0,0,0,.56-1.29c-10.48-33.65-22.11-66.84-34.15-99.87-17.26-47.74-37.91-100.18-57.1-147.49-20.17-48.77-40.72-97.29-63.84-144.82-.5-1.12-2.43-.46-2,.79Z"/><path class="cls-7" d="M1056.68,2109.13c2.78,32.84,12.53,64.25,24.87,94.58a217.48,217.48,0,0,0,14.6,29.52,1.11,1.11,0,0,0,1.52.37,1.13,1.13,0,0,0,.53-1,216.81,216.81,0,0,0-5.14-32.53c-2.31-10.65-5.23-21.11-8.48-31.46-6.74-20.83-14.45-41.17-25.86-60.11a1.11,1.11,0,0,0-2,.65Z"/><path class="cls-7" d="M169.49,315.19C188.7,364,208.75,412.72,221,463.71c4.54,20.91,7,42.12,9.75,63.48,9.57,74.57,26.12,148.83,51,219.78A1060.07,1060.07,0,0,0,340.5,885.21a1.8,1.8,0,0,0,3.31-1.36C329.09,836.1,314.19,788.74,301,741s-24.5-95.78-33.83-144.23c-10.33-48.89-13.88-99.53-28.69-147.56-16.14-48.15-39.09-92.88-65.83-135.69a1.8,1.8,0,0,0-3.17,1.66Z"/></g><path class="cls-7" d="M1290.49,3176.33a289.29,289.29,0,0,0,45.12-4,412.35,412.35,0,0,0,165-65.26c55.53-37.57,77.47-72.36,65.19-103.4-20.14-51-85.76-82.77-108.19-92.37L1184.1,2203.54c-153.26-366-240.52-744.12-305.68-1065.75a2603.19,2603.19,0,0,0-71.07-273.9C717.8,583.58,609.63,319.76,485.84,79.76,470.55,50.12,446.09,27.11,417,15c-94.39-39.35-220.07,11-228.73,14.52C179.9,32.63,58.85,79.85,14.28,169.28-1,200.07-4.16,235.81,5.54,269.93,79.37,529.61,180.87,796,307.21,1061.66A2601.84,2601.84,0,0,0,442.7,1310.09C615.12,1589.3,810,1924.81,948.41,2296.22l284.66,703.87c-9.78,22.34-35.89,90.43-15.74,141.38C1226.5,3164.67,1251.05,3176.33,1290.49,3176.33ZM334.41,35c23.69,0,47.62,3.31,69.08,12.26s39.73,26.21,51.24,48.53C577.63,334.08,685.05,596.08,774,874.54a2564.86,2564.86,0,0,1,70.1,270.2c65.51,323.3,153.27,703.47,307.53,1071.87L1427.71,2931A17.49,17.49,0,0,0,1437.9,2941c21.4,8.05,80.28,37.33,95.37,75.5,4,10-7.7,31.4-52.25,61.54h0a377.09,377.09,0,0,1-150.92,59.67c-53.12,8.49-76.26.83-80.22-9.16-15.15-38.32,7.82-99.84,17.94-120.3a17.52,17.52,0,0,0,.55-14.33L981,2283.55C841.77,1909.74,645.8,1572.37,472.48,1291.7a2564.35,2564.35,0,0,1-133.65-245.07C213.31,782.7,112.5,518.17,39.21,260.36c-7.31-25.71-5-52.51,6.4-75.47,39-78.24,154.05-122.32,155.2-122.75l.57-.23C202.25,61.55,267.33,35,334.41,35Z"/><path class="cls-7" d="M297.57,60.24C423.28,53.66,429.84,109.71,330,173.67c-51.39,31.25-110.69,54.22-171.26,58.53-19.92.76-41.17,0-58-11.45a1.79,1.79,0,0,0-2.42,2.63c7.41,8.26,17.72,13.4,28.09,16.83,31.34,9.45,65.07,7.28,96.77,1.44C290.6,229,401.64,180.16,419.54,107c8.14-65.71-80.1-63.52-122.54-50.23a1.8,1.8,0,0,0,.57,3.52Z"/><path class="cls-7" d="M1283.37,3021.69c62.4,0,142.58-32.62,175.69-88.07a17.5,17.5,0,0,0-30-17.94c-31,51.89-122.25,81.21-172.4,67.94a17.5,17.5,0,1,0-9,33.84A141.11,141.11,0,0,0,1283.37,3021.69Z"/><path class="cls-7" d="M1017.56,2349.49c62.4,0,142.58-32.62,175.69-88.07a17.5,17.5,0,0,0-30-17.94c-31,51.89-122.25,81.23-172.4,67.94a17.5,17.5,0,1,0-9,33.84A141.16,141.16,0,0,0,1017.56,2349.49Z"/></g></g></g></svg>