<svg xmlns="http://www.w3.org/2000/svg" viewBox="0 0 1569.13 3176.33"><defs><style>.cls-1{isolation:isolate;}.cls-2{fill:#eaa16e;}.cls-3{fill:#ad6036;}.cls-4{opacity:0.55;}.cls-5{fill:#fff;}.cls-6,.cls-8{mix-blend-mode:color-burn;}.cls-6{opacity:0.23;}.cls-7{fill:#770833;}.cls-8{opacity:0.2;}</style></defs><g class="cls-1"><g id="Layer_2" data-name="Layer 2"><g id="Layer_1-2" data-name="Layer 1"><path class="cls-2" d="M78.31,3092.58a392.54,392.54,0,0,0,158,62.47c43,6.85,88.58,7,99.25-20,21.33-53.95-18.53-134.5-18.53-134.5l287.32-710.43c130.13-349.29,310.33-670.38,507.22-989.21a2572.7,2572.7,0,0,0,134.57-246.75c121.75-256,223.72-518.44,300.64-789,8.33-29.28,6-60.82-7.57-88.07-42.63-85.54-164.71-131.32-164.71-131.32S1249-6.45,1158.91,31.12c-26.14,10.89-47.09,31.49-60.07,56.66-129,250.06-234.1,511.33-320.39,781.43a2571.59,2571.59,0,0,0-70.58,272.06C633.45,1508.53,545.31,1866,401.35,2209.85l-276.26,714.8s-84.17,31.5-105.51,85.45C8.91,3037.08,42.28,3068.2,78.31,3092.58Z"/><path class="cls-3" d="M125.09,2924.65c34.81,58.29,133.74,91.28,191.91,75.89l265.81-672.2c-58.16,15.39-157.1-17.6-191.9-75.89Z"/><g class="cls-4"><path class="cls-5" d="M141.94,3112.41a386.93,386.93,0,0,0,59.78,33.21,391.78,391.78,0,0,1-91.63-45.8c-36-24.4-69.4-55.51-58.74-82.48,21.33-53.94,105.51-85.44,105.51-85.44l276.26-714.79c144-343.85,232.12-701.34,306.54-1068.6a2573.44,2573.44,0,0,1,70.59-272.06c86.27-270.1,191.42-531.39,320.4-781.43,13-25.15,33.92-45.78,60.06-56.69C1280.78.77,1406.28,53,1406.28,53s6.08,2.3,16,6.77c-36.48-12.44-129.06-38.29-199.8-8.84-26.14,10.9-47.1,31.54-60,56.69C1033.47,357.64,928.37,619,842.05,889a2578.76,2578.76,0,0,0-70.59,272C697,1528.35,608.91,1885.84,465,2229.7L188.71,2944.5S104.53,2976,83.2,3029.94C72.54,3056.9,105.89,3088,141.94,3112.41Z"/></g><g class="cls-6"><path class="cls-7" d="M1215.56,1040.45A2575.9,2575.9,0,0,1,1081,1287.2C884.1,1606,703.9,1927.12,573.78,2276.45L286.45,2986.87s39.87,80.55,18.54,134.49c-6.41,16.23-25.45,22.62-49,23.69,9.51-3.93,16.57-10,19.86-18.81,20.3-54.34-21.11-134.11-21.11-134.11l273.4-715.87c123.29-351.76,297.19-676.36,487.83-999A2570.22,2570.22,0,0,0,1145.7,1028c116.72-258.32,213.57-522.68,285.22-794.7,7.73-29.47,4.8-60.95-9.32-87.93-14.76-28.21-38.23-51.79-63-70.77,3.48,1.53,175.49,78.21,157.6,176.89C1439.27,522,1337.29,784.42,1215.56,1040.45Z"/></g><g class="cls-8"><path class="cls-7" d="M1255.48,120.77c-16.44,16.12-33.73,31.19-51.27,46l2.93-3.79c-24,74.83-53.07,147.83-86.05,219.13-11.25,23.68-22.72,47.27-35.74,70.25a1.8,1.8,0,0,1-3.32-1.31c6.22-25.67,14-50.73,22-75.7,24.7-74.57,53.41-147.72,87.08-218.71a7.62,7.62,0,0,1,2.93-3.79c9.7-6.09,19.4-12.18,29.31-18s19.84-11.58,30-17a1.82,1.82,0,0,1,2.12,2.88Z"/><path class="cls-7" d="M1318.65,150.26a434,434,0,0,1,4.17,74,831.68,831.68,0,0,1-51.63,124.28c-28.66,53.64-32,53.72-15.84-6.26a831.37,831.37,0,0,1,46.74-124.71l-.74,3.3c1.54-11.86,3.35-23.7,5.56-35.52s4.76-23.69,8.18-35.35a1.84,1.84,0,0,1,3.56.23Z"/><path class="cls-7" d="M945.36,722.1c30.27-58,67.23-116.21,122.65-153.39,48.89-32.75,114.24-21.29,130.46,40.93,19,76.4-12.51,172.11-36,245-26.61,78.58-61.21,160.91-132.16,209.87-85.85,57.21-139.78-24.39-124.81-107.66,7.52-50,27.28-97.11,51.76-140.68,20.47-35,84.61-138.89,133.14-100.09,46.66,43.45-9.85,169.67-43.46,210.51a1.79,1.79,0,0,1-2.9-2.08,303.28,303.28,0,0,0,23.42-42.43c13.33-29.12,23.45-60.26,27.08-92,1.64-15.65,1.75-31.84-2.66-45.86-7.59-23.88-27.38-27.63-46.12-12.05-62.45,50.92-130,192.25-117.53,273.1,10.12,50.83,43.2,69.86,88.42,38.72,38.2-26.65,66-66.62,87.27-108,35.25-77.22,96.08-240,76.09-321.3-6.24-29.77-31.56-50-61.92-47.74-47.33,4.53-83.24,42.78-113.58,77.42a601.77,601.77,0,0,0-55.93,79.4c-1,2.06-4.26.32-3.17-1.66Z"/><path class="cls-7" d="M872.73,915.45c-19.71,92.73-39.42,208.21,36.2,280.67,10.16,10.1,22.39,18.64,34.13,26.77a1.8,1.8,0,0,1,.39,2.51,1.82,1.82,0,0,1-2,.65c-3.56-1.11-7.09-2.38-10.67-3.6-7.16-2.41-14-6-20.76-9.35-76.14-42-90.76-137.12-72.42-215.11,6.71-29.43,16.73-57.94,31.83-83.92a1.8,1.8,0,0,1,3.29,1.38Z"/><path class="cls-7" d="M771.23,1087c-4.24,79.83-4.88,159.85-5.55,239.77,0,20.41-2.23,41.13-5.25,61.27-9.45,59.89-25.17,118.55-42,176.57a3738.46,3738.46,0,0,1-168.17,450.75,1.79,1.79,0,0,1-3.33-1.3c26.76-81.44,87.71-263.25,112.43-342,29.75-94.86,60-190.07,78.92-287.66,3.35-19.48,6-38.59,7-58.11,3.94-80.18,9.08-160.43,22.39-239.72a1.79,1.79,0,0,1,2.08-1.44,1.77,1.77,0,0,1,1.46,1.91Z"/><path class="cls-7" d="M1104,1156c-7.25,27-21.17,51.4-36.34,74.67-25.23,37.29-57,70.5-91.3,99.54l-8,6.5c-26.24,19-46.66,46.47-64.53,73.67-29.39,45-51.93,94.66-76,142.92-23.84,49-47.51,98.19-72.61,146.85a1.79,1.79,0,0,1-2.41.78,1.81,1.81,0,0,1-.89-2.15,2081.94,2081.94,0,0,1,90.86-229c24.11-50.41,52.37-100.25,94.34-138.64,43.49-31.71,84.83-67.27,119.14-108.91,17-20.72,33-42.88,44.29-67.24a1.79,1.79,0,0,1,3.42,1Z"/><path class="cls-7" d="M727.88,1767.29c-20.57,66.22-46.25,133.75-71.58,198.45-13,32.63-26.23,65.21-40.11,97.51s-28,64.51-43.39,96.22a1.07,1.07,0,0,1-1.44.5,1.1,1.1,0,0,1-.56-1.29c10.48-33.65,22.11-66.84,34.15-99.87,17.26-47.74,37.91-100.18,57.1-147.49,20.17-48.77,40.72-97.29,63.84-144.82.5-1.12,2.43-.46,2,.79Z"/><path class="cls-7" d="M512.45,2109.13c-2.78,32.84-12.53,64.25-24.87,94.58A216.38,216.38,0,0,1,473,2233.23a1.09,1.09,0,0,1-1.51.37,1.13,1.13,0,0,1-.53-1,218.09,218.09,0,0,1,5.13-32.53c2.32-10.65,5.24-21.11,8.49-31.46,6.73-20.83,14.45-41.17,25.86-60.11a1.11,1.11,0,0,1,2,.65Z"/><path class="cls-7" d="M1399.64,315.19c-19.21,48.82-39.26,97.53-51.53,148.52-4.54,20.91-7,42.12-9.75,63.48-9.57,74.57-26.12,148.83-51,219.78a1060.07,1060.07,0,0,1-58.71,138.24,1.8,1.8,0,0,1-3.31-1.36c14.72-47.75,29.62-95.11,42.8-142.84s24.49-95.78,33.83-144.23c10.33-48.89,13.88-99.53,28.68-147.56,16.15-48.15,39.1-92.88,65.84-135.69a1.8,1.8,0,0,1,3.17,1.66Z"/></g><path class="cls-7" d="M278.64,3176.33a289.19,289.19,0,0,1-45.12-4,412.35,412.35,0,0,1-165-65.26C13,3069.5-9,3034.71,3.31,3003.67c20.14-51,85.76-82.77,108.19-92.37L385,2203.54c153.26-366,240.52-744.12,305.68-1065.75a2603.19,2603.19,0,0,1,71.07-273.9C851.33,583.58,959.5,319.76,1083.29,79.76c15.29-29.64,39.75-52.65,68.88-64.8,94.39-39.35,220.07,11,228.73,14.52,8.33,3.15,129.37,50.37,173.95,139.8,15.33,30.79,18.44,66.53,8.74,100.65-73.83,259.68-175.33,526.05-301.67,791.73a2601.84,2601.84,0,0,1-135.49,248.43C954,1589.3,759.09,1924.81,620.72,2296.22L336.06,3000.09c9.78,22.34,35.89,90.43,15.74,141.38C342.63,3164.67,318.08,3176.33,278.64,3176.33ZM1234.72,35c-23.69,0-47.62,3.31-69.08,12.26s-39.73,26.21-51.24,48.53C991.5,334.08,884.08,596.08,795.12,874.54a2564.86,2564.86,0,0,0-70.1,270.2C659.51,1468,571.74,1848.21,417.49,2216.61L141.42,2931A17.49,17.49,0,0,1,131.23,2941c-21.4,8.05-80.28,37.33-95.37,75.5-3.95,10,7.7,31.4,52.25,61.54h0A377.09,377.09,0,0,0,239,3137.76c53.11,8.49,76.26.83,80.21-9.16,15.16-38.32-7.81-99.84-17.94-120.3a17.55,17.55,0,0,1-.54-14.33L588.1,2283.55c139.25-373.81,335.23-711.18,508.55-991.85a2564.35,2564.35,0,0,0,133.65-245.07c125.52-263.93,226.33-528.46,299.62-786.27,7.31-25.71,5-52.51-6.4-75.47-39-78.24-154-122.32-155.2-122.75l-.57-.23C1366.88,61.55,1301.8,35,1234.72,35Z"/><path class="cls-7" d="M1271.56,60.24c-125.71-6.58-132.27,49.47-32.38,113.43,51.39,31.25,110.69,54.22,171.26,58.53,19.92.76,41.17,0,58-11.45a1.8,1.8,0,0,1,2.43,2.63c-7.41,8.26-17.72,13.4-28.09,16.83-31.34,9.45-65.07,7.28-96.77,1.44-67.5-12.65-178.54-61.49-196.44-134.7-8.14-65.71,80.1-63.52,122.54-50.23a1.8,1.8,0,0,1-.57,3.52Z"/><path class="cls-7" d="M285.76,3021.69c-62.4,0-142.58-32.62-175.69-88.07a17.5,17.5,0,0,1,30.05-17.94c31,51.89,122.24,81.21,172.4,67.94a17.5,17.5,0,0,1,9,33.84A141.22,141.22,0,0,1,285.76,3021.69Z"/><path class="cls-7" d="M551.57,2349.49c-62.4,0-142.58-32.62-175.69-88.07a17.5,17.5,0,0,1,30.05-17.94c31,51.89,122.25,81.23,172.4,67.94a17.5,17.5,0,0,1,9,33.84A141.16,141.16,0,0,1,551.57,2349.49Z"/></g></g></g></svg>