<?xml version="1.0" encoding="UTF-8"?>
<svg id="Layer_1" xmlns="http://www.w3.org/2000/svg" version="1.1" viewBox="0 0 220 300">
  <!-- Generator: Adobe Illustrator 29.8.3, SVG Export Plug-In . SVG Version: 2.1.1 Build 3)  -->
  <defs>
    <style>
      .st0, .st1, .st2, .st3 {
        stroke: #fbbf24;
      }

      .st0, .st4 {
        stroke-width: .8px;
      }

      .st0, .st4, .st3 {
        stroke-miterlimit: 3.2;
      }

      .st1, .st5, .st2 {
        stroke-width: 2px;
      }

      .st1, .st2, .st3 {
        fill: none;
      }

      .st5 {
        fill: #1e3a8a;
        stroke: #172554;
      }

      .st6 {
        font-size: 18px;
      }

      .st6, .st7, .st8 {
        font-family: TimesNewRomanPS-BoldMT, 'Times New Roman';
        font-weight: 700;
      }

      .st6, .st7, .st8, .st2, .st9 {
        isolation: isolate;
      }

      .st6, .st7, .st8, .st10, .st9 {
        fill: #fbbf24;
      }

      .st6, .st8 {
        letter-spacing: .12em;
      }

      .st7 {
        font-size: 24px;
      }

      .st8 {
        font-size: 16px;
      }

      .st2 {
        opacity: .3;
      }

      .st4 {
        stroke: #1e3a8a;
      }

      .st3 {
        stroke-width: 1.6px;
      }

      .st9 {
        font-family: TimesNewRomanPSMT, 'Times New Roman';
        font-size: 12px;
        letter-spacing: .08em;
      }
    </style>
  </defs>
  <rect class="st5" x="2" y="2" width="216" height="296" rx="12" ry="12"/>
  <rect class="st2" x="15" y="15" width="190" height="270" rx="8" ry="8"/>
  <text class="st6" transform="translate(56.87 245.06)"><tspan x="0" y="0">PASSPORT</tspan></text>
  <rect class="st5" x="531.55" y="2" width="216" height="296" rx="12" ry="12"/>
  <rect class="st2" x="544.55" y="15" width="190" height="270" rx="8" ry="8"/>
  <g>
    <path class="st10" d="M623.55,162h32l-4,8h-24l-4-8Z"/>
    <circle class="st3" cx="639.55" cy="154" r="8"/>
    <path class="st0" d="M639.55,146v16M631.55,154h16"/>
    <path class="st10" d="M629.95,130c-1.6-10.67,1.6-17.33,9.6-20,8,2.67,11.2,9.33,9.6,20l-3.2,16h-12.8l-3.2-16Z"/>
    <path class="st10" d="M627.55,134c-5.33-8-6.67-14.67-4-20,5.33,2.67,8.53,8,9.6,16"/>
    <path class="st10" d="M651.55,134c5.33-8,6.67-14.67,4-20-5.33,2.67-8.53,8-9.6,16"/>
    <path class="st4" d="M635.55,118h8M637.15,122h4.8"/>
  </g>
  <text class="st8" transform="translate(590.64 60)"><tspan x="0" y="0">PASSPORT</tspan></text>
  <text class="st7" transform="translate(604.21 210)"><tspan x="0" y="0">INDIA</tspan></text>
  <text class="st9" transform="translate(574.38 235)"><tspan x="0" y="0">REPUBLIC OF INDIA</tspan></text>
  <rect class="st1" x="627.55" y="260" width="24" height="16" rx="3" ry="3"/>
  <circle class="st10" cx="639.55" cy="268" r="3"/>
  <g>
    <path class="st10" d="M122.84,52.8l8.96,3.04c18.21,7.66,31.31,25.1,33.66,44.71l.45,9.45-1.43,10.16-3.04,8.96c-7.68,18.22-25.07,31.33-44.69,33.69l-9.45.45-10.15-1.43-8.96-3.04c-18.19-7.65-31.33-25.11-33.66-44.71l-.45-9.45c.65-3.29.72-6.91,1.43-10.16,5.55-25.43,31.22-44.78,57.17-43.11l10.15,1.43ZM123.9,59.1c-2.56-.92-2.7-2.89-5.51-3.94-8.43-3.13-23.76.53-31.73,4.39-.72.35-4.74,2.48-4.95,2.84-.4.65.32.45.62.44,3.54-.09,7.54-2.03,11.15-.62l2.68-2.13,2.79.37.15,1.31c1.33-.28,3.33-2.68,4.27-.37.79,1.95-3.06,1.14-3.57,1.28-.91.26-1.13,1.56-1.91,2-.96.54-2.8.16-3.66.79-.53.39-1.67,2.28-1.74,2.98-.39,3.95,5.78,2.92,7.18,4.26,1.17,1.12.33,4.18,1.5,4.56,1.58.51,1.13-2.81,1.6-3.43.71-.93,2.62-.79,2.25-2.61-.09-.44-.7-.54-.77-.69-.31-.69.55-1.35.7-1.93.17-.66-.42-1.94.66-2.31,1.29.72,2.81.41,4.09,1.11,1.81.99,1.68,3.02,2.1,3.24,1.16.6,2.39.37,3.2-.59,2.13.17,1.1,3.54,3.41,3.86,1.09.15,1.79-.28,2.9.61,1.17.94.94,4.23-.47,4.86-1.14-.16-3.15.82-3.97.76-1.03-.08-1.87-.77-3.37-.71-.96.04-2.75.7-3.64,1.19,1.08.12,2.03-.33,3.22-.18,2.46.31-.27,1.59-.21,1.73.93-.02.53,1.08.97,1.47.53.47,1.61.5,2.29.62l-.13.95c-1.42-.37-2.79.14-3.87,1.07-.33-.33-.54-.7-.32-1.17.3-.63,1.57.13,1.42-.94-1.61.85-3.74.22-5.18,1.21-.68.46-1.09,1.38-1.72,1.87-.7.54-3.32,2.03-3.75,2.56-.55.69-.81,2.48-1.77,3.67-1.58,1.96-4.25,1.64-4.36,4.32-.06,1.44,1.32,3.54-.2,4.7-1.87-.59-1.2-3.69-1.93-4.52-.45-.51-1.04-.07-1.53-.24-3.01-1.06-1.49-.42-3.99-.24-1.48.11-2.46-.49-4.11.19-1.98.82-3.68,4.45-3.15,6.55.43,1.72,2.7,3.45,4.54,2.83.79-.27.7-1.47,1.38-1.94s2.04-.37,2.8-.23c.35.44-2.56,3.05-1.79,4.61.48.98,2.88.35,3.75,1.57s-1.07,2.92.09,4.9,2.86-.11,4.28,1.31c.91.92.02,3.21.46,3.77.68.86.48-1.09.92-1.41.29-.21.76-.22,1.12-.24,1.83.95,3.66,1.7,5.69,1.91,1.52,1.24,2.73,2.4,4.01,3.8s1.86.63,3.15,1.01c2.1.62,3.07,3.21,2.75,5.19,2.69-.08,4.3,1.79,6.44,2.95.67.36,1.49.34,2.12.67.35.18,3.01,2.04,3.08,2.22.91,2.63-2.15,3.26-3,4.31-.72.9-1.02,2.65-1.7,3.77-.25.41-2.52,3.28-2.77,3.48-1.01.82-3.97.13-5.46,1.03-1.01.61-.61,1.31-1.09,1.94-.86,1.13-5.04,2.89-6.45,3.49-.53.23-1.04.94-1.47,1.06-.81.23-1.58-.21-2.34-.1-.5.07-.99.74-1.54.97-1.06.45-2.59.26-2.65,1.94,16.7,4.26,35.46-.89,48.01-12.51,1.23-1.14,4.85-4.6,5.51-5.87s.94-3.83,1.76-5.57c1.06-2.22,2.43-2.84,2.53-5.6.05-1.2-.5-2.49-.43-3.66.1-1.57,1.39-2.96.04-4-1.49-1.15-2.42-.25-3.83-.28-1-.02-4.16-.16-4.76-.63-.8-.63-4.09-5.7-4.3-6.69-.52-2.43.85-2.84,1.02-4.32.22-1.92-1.58-2.59.23-5.14.89-1.25,4.47-3.97,5.04-4.94.18-.3,0-1.05.4-1.75.57-1.01,1.9-1.16,2.01-2.44.85-.05,1.55.83,2.29.93,1.17.15,1.75-1.11,3.76-.26s2.06,4.24,4.36,5.81l.41.19.88-.71-.75-5.73-.77.96-.67.13c.33-2.13-2.38-3.24-1.83-5.44l-2.53-.35c.11,1.06-1.02,1.03-1.3,1.51-.36.6-.34,2.04-.83,2.26l-2.5.31-2.18-1.22c.19-.72-.42-1.55-.38-2.08.03-.37.41-.81.45-1.26.04-.49-.04-2.14.18-2.39.79-.92,3.31,2.12,4.26.74-.17-1.23-.54-3-1.88-3.31l-.08-.98c1.98,1.38,2.25-1,3.94-.42l-.14-1.31,1.56.38c-3.91-8.12-10.16-14.85-17.45-20.06-2.29.71-3.49,2.45-6.12,2.31-.36.4-.19,1.21-.38,1.7-.1.25-.68.13-.68.27-.02.87,1,2.09-.63,2.98-1.12.61-1.47-.98-2.37-1.28-1.99-.67-3.3-.17-5.04-2.16-.75-.86-.76-1.65-1.25-2.46-.67-1.11-2.44-1.72-1.23-3.49.59-.86,1.24-.21,1.5-.83-.91-.28-2.43.63-2.47-.83l2.65-.44ZM68.37,91.03c-.12-.22-.39-4.41-.35-4.98.15-2.63,1.66-4.24,1.83-6.19.08-.86-.65-3.82-1.02-4.64-.19-.43-.2-.71-.8-.67-2.13,3.24-4.35,6.38-6.01,9.91-13.65,29.01.97,62.83,30.86,73.22.94-1.21.11-2.46.3-3.63.28-1.67,1.94-5.07,2.44-6.86.25-.89.6-3.11.44-3.98-.18-1.03-3.33-2.8-4.3-4.13-1.21-1.65-1.34-3.76-2.18-5.16-.64-1.06-1.99-1.48-1.66-3.27l1.07-.55c-2.12-2.03,1.91-3.5,2.57-5.29.33-.89-.02-1.39.11-2.08s1.81-2.81,2.37-3.26c.88-.72,4.07-1.11.62-2.01l-.18,1.27c-.26-.01-.48-.06-.72-.17-.27-.12-4.02-2.89-4.17-3.1-.64-.84-.2-1.88-.94-2.7-.89-.98-2.92-1.02-3.84-1.86-.43-.39-.45-1.43-1.19-1.75s-1.42.11-2.02-.15c-.28-.12-4.86-3.26-5.08-3.48-.82-.84-.67-3.03-1.19-4.29-.36-.88-1.07-1.38-1.39-2.07-.78-1.64-1.71-3.46-1.85-5.28-.61-.12-.61-.24-.71.39-.28,1.82.77,2.03,1.23,3.34s.04,2.74,1.02,3.77c-1.57.44-1.46-1.87-1.85-2.86-.17-.42-.8-.78-.95-1.27-.37-1.2-.57-4.04-.95-4.96-.34-.83-1.35-.97-1.51-1.27Z"/>
    <path class="st10" d="M105.09,57.1l.03,1,4.2-.1.03,1c1.85-.53,3.07,1.27,4.98,1.35l-.86,1.49c1.54.25,2.83,1.14,4.21,1.8.3.14.96.08.62.65-.94,1.59-3.1.42-3.95-.71l-.87.53,2.56,2.46c.33,1.34-2.86-.44-3.19-.29.25.77,2.01.58,1.68,1.85-.93-.66-3.5-1.07-4.22-1.64-.27-.21-.21-1.27-1.37-1.68-1.22-.43-1.67.26-2.53.2-.63-.05-1.76-.78-.54-1.05,1.03-.23,2.08-.01,3.09.14-.5-1.2.39-1.07,1.2-1.61.28-.67-3.23-2.83-3.98-2.97-.79-.14-1.92.3-2.88.29-1.39-.02-2.75-.36-4.15-.3-1.12-1.79.57-2.13,1.94-2.66l.84,2.05c0-1.96,1.66-1.87,3.17-1.82Z"/>
    <path class="st10" d="M151.47,76.91c-.03.27-.14.61-.01.84.8,1.47,2.41,3.43,2.9,5.06.13.45.1.83,0,1.28l-2.89-1.37c-.3-.82.37-1.48.35-2.25,0-.52-3.26-4.02-.34-3.57Z"/>
    <path class="st10" d="M98.44,105.82c.09.05.11.38.31.53.74.51,2.05.72,2.41,1.66l-3.22-.13.45-.9c-1.01-.27-3.57-2.38-4.35-2.44-.39-.03-1.99,1.39-1.8.12,1.94-1.76,4.39.04,6.18,1.16Z"/>
    <path class="st10" d="M105.97,110.64c-1.07-1.14-2.16-.13-2.79-.13-.39,0-.58-.53-.87-.61-.61-.17-1.78.5-1.59-.97l1.54.54-.45-1.36c1.71.07,3.95.51,4.17,2.53Z"/>
    <path class="st10" d="M148.31,78.72l1.94.08.65,2.07c-.06.29-1.68.72-2,.39l-.6-2.54Z"/>
  </g>
</svg>