<?xml version="1.0" encoding="UTF-8"?>
<svg id="Layer_1" xmlns="http://www.w3.org/2000/svg" version="1.1" viewBox="0 0 436 300">
  <!-- Generator: Adobe Illustrator 29.8.3, SVG Export Plug-In . SVG Version: 2.1.1 Build 3)  -->
  <defs>
    <style>
      .st0 {
        fill: #549f45;
      }

      .st1, .st2, .st3, .st4 {
        stroke: #fbbf24;
      }

      .st1, .st5 {
        stroke-width: .8px;
      }

      .st1, .st5, .st4 {
        stroke-miterlimit: 3.2;
      }

      .st6 {
        fill: #ef4637;
      }

      .st2, .st7, .st3, .st8 {
        stroke-width: 2px;
      }

      .st2, .st3, .st9, .st4 {
        fill: none;
      }

      .st7 {
        fill: #1e3a8a;
      }

      .st7, .st8 {
        stroke: #172554;
      }

      .st10, .st3, .st11, .st12, .st13 {
        isolation: isolate;
      }

      .st3 {
        opacity: .3;
      }

      .st8 {
        fill: #f7f6e7;
      }

      .st5 {
        stroke: #1e3a8a;
      }

      .st14 {
        opacity: .8;
      }

      .st9 {
        stroke: #56350d;
        stroke-miterlimit: 10;
      }

      .st15 {
        fill: #5277a6;
      }

      .st4 {
        stroke-width: 1.6px;
      }

      .st16, .st11, .st12, .st13 {
        fill: #fbbf24;
      }

      .st11 {
        font-size: 16px;
        letter-spacing: .12em;
      }

      .st11, .st13 {
        font-family: Times-Bold, Times;
        font-weight: 700;
      }

      .st12 {
        font-family: TimesNewRomanPSMT, 'Times New Roman';
        font-size: 12px;
        letter-spacing: .08em;
      }

      .st13 {
        font-size: 24px;
      }
    </style>
  </defs>
  <path class="st8" d="M18,2h200v296H18c-8.83,0-16-7.17-16-16V18C2,9.17,9.17,2,18,2Z"/>
  <rect class="st3" x="15" y="15" width="190" height="270" rx="8" ry="8"/>
  <path class="st8" d="M218,2h199.94c8.87,0,16.06,7.2,16.06,16.06v263.87c0,8.87-7.2,16.06-16.06,16.06h-199.94V2h0Z"/>
  <rect class="st3" x="231" y="15" width="190" height="270" rx="8" ry="8"/>
  <rect class="st7" x="531.55" y="2" width="216" height="296" rx="12" ry="12"/>
  <rect class="st3" x="544.55" y="15" width="190" height="270" rx="8" ry="8"/>
  <g>
    <path class="st16" d="M623.55,162h32l-4,8h-24l-4-8Z"/>
    <circle class="st4" cx="639.55" cy="154" r="8"/>
    <path class="st1" d="M639.55,146v16M631.55,154h16"/>
    <path class="st16" d="M629.95,130c-1.6-10.67,1.6-17.33,9.6-20,8,2.67,11.2,9.33,9.6,20l-3.2,16h-12.8l-3.2-16h0Z"/>
    <path class="st16" d="M627.55,134c-5.33-8-6.67-14.67-4-20,5.33,2.67,8.53,8,9.6,16"/>
    <path class="st16" d="M651.55,134c5.33-8,6.67-14.67,4-20-5.33,2.67-8.53,8-9.6,16"/>
    <path class="st5" d="M635.55,118h8M637.15,122h4.8"/>
  </g>
  <g class="st10">
    <g class="st10">
      <g class="st10">
        <g class="st10">
          <text class="st11" transform="translate(590.64 60)"><tspan x="0" y="0">PASSPORT</tspan></text>
        </g>
      </g>
    </g>
  </g>
  <g class="st10">
    <g class="st10">
      <g class="st10">
        <g class="st10">
          <text class="st13" transform="translate(604.21 210)"><tspan x="0" y="0">INDIA</tspan></text>
        </g>
      </g>
    </g>
  </g>
  <g class="st10">
    <g class="st10">
      <g class="st10">
        <g class="st10">
          <text class="st12" transform="translate(574.38 235)"><tspan x="0" y="0">REPUBLIC OF INDIA</tspan></text>
        </g>
      </g>
    </g>
  </g>
  <rect class="st2" x="627.55" y="260" width="24" height="16" rx="3" ry="3"/>
  <circle class="st16" cx="639.55" cy="268" r="3"/>
  <line class="st9" x1="259.19" y1="265" x2="394.41" y2="265"/>
  <g class="st14">
    <path class="st15" d="M112.43,104.9l3.11-1.33s-.01,0-.02-.02h0s-1.72-2.16-2.1-2.21c-.3-.04-10.03.32-14.56.5-.05-.08-.1-.18-.15-.25-.96-1.69-2-3.47-3.09-5.34l-.3-.5c-.54-.93-1.1-1.86-1.65-2.8-.1-.15-.18-.3-.26-.43-.53-.91-1.09-1.82-1.65-2.75-.02-.08-.08-.14-.11-.22h0c-2.14-3.55-4.37-7.2-6.5-10.66l4.29-1.67s.02.02.02.04c.04.03.06.07.08.09,0,.03.04.04.06.07h0c.13.13.26.25.35.33l.09-.02c.1-.03.2-.08.24-.19v.03s.05-.05.06-.1c-.03-.1-.1-.21-.15-.32-.02-.05-.02-.05.01,0,.07.11-.03-.06-.07-.09l-.02-.09,4.12-1.61h0s.06.08.08.1c0,.03.04.06.06.08h0c.13.12.26.25.35.32l.09-.02c.12-.03.21-.1.26-.18v.03s.04-.08.05-.09c-.03-.1-.1-.21-.14-.33h.01s-.06-.07-.05-.1c0-.03-.01-.04-.03-.06l3.25-1.27.9-.34s.04.04.06.05c.02.02.04.06.05.08h.01c.13.11.23.25.35.32.03,0,.05,0,.1,0v-.03c.1-.01.18-.08.24-.16h0s.04-.04.05-.07c-.03-.1-.09-.23-.13-.34h0s-.02-.09-.06-.13l4.14-1.6s0,.01.02,0c.04.03.06.05.07.09.03.02.03.06.06.07h0c.12.13.25.25.35.33.03,0,.07,0,.09-.02h0c.12-.03.19-.11.25-.19h0s.04-.04.05-.07c-.02-.09-.1-.22-.15-.32h.01s-.06-.11-.09-.17h0l4.25-1.65h0s-.17-.86-.66-1.09c0,0-.06-.03-.12-.02-.03,0-.05,0-.07,0-.05,0-.13,0-.21,0-.02,0-.06-.01-.1-.01-.11,0-.21-.01-.35-.02-.03,0-.07,0-.11-.01-.35-.02-.78-.04-1.28-.06-.05,0-.11,0-.15.01-.24-.02-.48,0-.75-.04-.03,0-.04.01-.07,0-.08,0-.17-.01-.27-.01,0-.01-.03-.05-.03-.05v.04c-3.62-.14-9.57-.31-15.13-.45-.26-.41-.6-.92-1.01-1.37h0c-.31-.37-.63-.73-.98-1.05l-.58.15c-.44.17-1.06.47-1.66.96h0c-.08.06-.18.16-.26.25-.04.01-.06.04-.09.07h0s-.01,0-.02.03c-.03,0-.05.01-.05.06-.16.17-.32.35-.46.55,0,0,.04.09.09.2-1.39-.05-2.67-.08-3.82-.11-.14,0-.29,0-.44,0h.03c-.8-.02-1.48-.04-2.09-.05-.46-.76-.92-1.46-1.37-2.16h0c-.98-1.57-1.83-2.91-2.52-3.96-.09-.12-.14-.21-.21-.32-.11-.16-.21-.33-.31-.48-.07-.11-.14-.2-.19-.32-.09-.13-.16-.25-.25-.36-.05-.1-.1-.18-.16-.25-.12-.18-.21-.33-.31-.45-3.53-5.23-7.93-8.41-9.83-7.12-1.92,1.29-.6,6.58,2.92,11.79.09.13.2.28.31.44.05.1.14.2.2.29.06.08.12.18.2.28.09.13.18.27.29.41.05.08.11.16.18.26.33.48.74,1.03,1.18,1.66.17.24.37.5.54.75.04.03.06.11.09.14.4.53.8,1.11,1.24,1.74h0c.48.67.99,1.36,1.52,2.09-.21.55-.43,1.18-.69,1.86h0c-.45,1.18-.94,2.54-1.49,4-.08-.1-.14-.16-.14-.16-.24.06-.47.14-.68.21-.04.01-.06.04-.09.04h-.03s-.07.04-.11.05c-.11.06-.23.1-.33.17h0c-.64.33-1.13.78-1.46,1.12-.08.08-.15.16-.2.22h0s-.05.07-.07.1c-.03.04-.05.07-.08.1h0l-.03.05-.03.04c.16.45.37.89.6,1.32h0c.29.54.63,1.04.92,1.45-.98,2.64-1.98,5.37-2.91,7.88-.05.12-.09.24-.14.37-.12.33-.25.67-.38,1.01-.1.29-.2.55-.3.84-.05.11-.09.23-.13.35-.09.27-.19.53-.29.79-.04.09-.08.19-.1.29-.12.33-.24.66-.36.98,0,0,0,.03-.02.05-.21.61-.41,1.17-.6,1.69l-.04-.03s0,.03.04.03c-.03.09-.05.17-.08.26,0,.01-.02.03-.02.07-.1.25-.19.52-.28.75,0,.01,0,.03-.01.06-.17.5-.32.93-.44,1.26,0,0-.02.03-.02.05-.05.14-.08.27-.11.36-.02.03-.04.07-.05.08-.03.09-.05.17-.07.21,0,.03-.01.06-.01.06-.03.06-.02.12-.03.13.04.4.45.78.66.93.07.05.12.08.12.08l3.1-3.33h0s.08.1.11.14h0c.09.09.19.2.26.25.03,0,.07,0,.09-.01h0c.09-.02.17-.09.24-.19h0s.03-.04.05-.07c-.04-.14-.12-.3-.19-.45h0l-.02-.06s-.05-.1-.08-.16l3.04-3.24s.06.08.09.12h0c.09.09.19.18.25.25.05.02.07,0,.09-.01v-.03c.09-.01.18-.06.24-.16h0s.04-.04.05-.08c-.03-.13-.11-.27-.18-.43h0v-.05s-.06-.07-.07-.11l2.05-2.2.98-1.04s.1.1.12.13h0c.08.1.16.2.25.25.03.02.07,0,.11,0v-.03c.08-.02.17-.06.24-.16h0s.04-.04.05-.07c-.03-.13-.1-.29-.17-.45h0l-.02-.06s-.05-.1-.08-.14l3.04-3.24v.03s.09.1.12.13h0c.09.09.17.19.26.25.03,0,.07,0,.09-.01h0c.12-.03.18-.09.25-.19h0s.04-.04.04-.07c-.03-.13-.1-.29-.17-.45h0l-.02-.06s-.07-.11-.1-.17l3.1-3.33c2.48,3.35,5.09,6.87,7.66,10.25h0c.09.12.19.24.27.34.58.77,1.16,1.54,1.72,2.29.12.13.21.28.32.41.62.8,1.23,1.59,1.83,2.37.19.25.38.49.58.73.6.79,1.19,1.54,1.78,2.29.08.09.14.17.21.26.58.72,1.12,1.44,1.68,2.12.06.07.11.14.16.2-.16.39-.34.78-.54,1.23-.04.07-.06.14-.09.22h0c-1.13,2.52-2.63,5.89-3.73,8.4-.06.1-.09.19-.13.28-.1.23-.2.45-.29.67-.04.09-.09.18-.12.27-.21.47-.39.87-.53,1.22-.02.03-.04.07-.04.09-.07.17-.14.31-.19.44-.03.08-.03.09,0,.02-.05.14-.09.22-.13.3,0,.02-.02.03-.02.05-.04.07-.05.12-.06.14-.07.25.53,1.43.93,2.17h0c.2.35.34.61.34.61l2.38-2.41s0,.01,0,0l7.37-7.36.08-.08c.07.09.14.16.22.25.11.12.21.23.32.36.25.25.48.51.69.74.26-.11.52-.23.77-.41.25-.15.47-.36.65-.56-.07-.17-.16-.36-.24-.56-.03-.09-.03-.1,0-.01-.05-.1-.1-.21-.15-.3v-.05c-.05-.07-.1-.17-.14-.26,0-.01-.01-.04-.04-.04v-.03c-.07-.12-.13-.24-.19-.37l9.68-4.13h0l.09.07v.03s0,0,0,0Z"/>
    <path class="st15" d="M84.64,133.63c-28.14-.27-50.82-23.39-50.55-51.53s23.39-50.83,51.53-50.55c28.14.28,50.82,23.39,50.55,51.53s-23.37,50.82-51.53,50.55ZM85.6,33.31c-27.17-.26-49.5,21.64-49.75,48.81-.26,27.17,21.64,49.5,48.81,49.75s49.5-21.64,49.75-48.81c.26-27.17-21.64-49.5-48.81-49.75Z"/>
    <path class="st15" d="M84.72,126.1c-24-.23-43.31-19.93-43.08-43.92.23-23.98,19.93-43.31,43.92-43.08,24,.23,43.33,19.92,43.09,43.91-.23,24-19.94,43.32-43.93,43.1ZM85.54,39.98c-23.5-.22-42.81,18.72-43.04,42.22-.22,23.51,18.72,42.81,42.22,43.04,23.5.22,42.81-18.72,43.04-42.22.22-23.5-18.71-42.8-42.22-43.02h.01s0-.02,0-.02Z"/>
  </g>
  <g class="st14">
    <g>
      <path class="st6" d="M196.1,157.01l-.05.02-82.48,38.45c-2.73,1.27-5.78,1.41-8.61.37-2.82-1.02-5.08-3.09-6.35-5.82l-20.21-43.35c-2.61-5.6-.18-12.29,5.4-14.93l82.54-38.48c2.72-1.27,5.78-1.41,8.6-.38,2.82,1.04,5.08,3.1,6.36,5.82l20.2,43.35c2.61,5.6.18,12.3-5.4,14.93h0ZM84.46,133.05c-4.92,2.33-7.03,8.15-4.76,13.05l20.21,43.34c1.11,2.38,3.06,4.18,5.53,5.08s5.14.78,7.51-.32l82.48-38.45.35.62-.3-.64c4.87-2.3,6.99-8.14,4.71-13.03l-20.21-43.35c-1.11-2.37-3.07-4.18-5.54-5.08-2.46-.9-5.12-.78-7.51.32l-82.48,38.45h.01Z"/>
      <g>
        <path class="st6" d="M105.16,177.82l2.69-1.27c.7-.33,1.34-.55,1.89-.66.55-.1,1.13-.08,1.7.08,1.49.4,2.67,1.54,3.55,3.4.29.61.5,1.2.62,1.75.14.55.18,1.08.15,1.6-.02.51-.14,1-.33,1.49-.16.37-.37.71-.62,1.01-.25.3-.55.56-.9.81-.35.24-.75.46-1.22.69l-2.68,1.27c-.38.17-.68.25-.93.23-.24-.02-.45-.13-.6-.3-.16-.18-.31-.44-.47-.76l-3.52-7.47c-.21-.44-.26-.82-.15-1.11.1-.29.38-.54.82-.75h.01ZM106.72,179.07l3.27,6.92,1.57-.74c.33-.16.61-.3.79-.4.18-.12.37-.25.54-.43s.31-.36.4-.56c.41-.91.28-2.07-.39-3.5-.47-1-.98-1.69-1.52-2.05s-1.06-.5-1.58-.43c-.51.07-1.08.25-1.7.55l-1.37.64h-.01Z"/>
        <path class="st6" d="M121.89,171.86l-4.65,2.2,1.17,2.5,4.27-2.02c.32-.15.59-.2.81-.13.22.07.39.22.5.45.1.23.13.46.03.68-.08.22-.28.39-.61.55l-4.27,2.02,1.37,2.9,4.81-2.27c.32-.15.6-.2.84-.12.24.07.41.23.53.48.12.24.13.47.03.7s-.3.41-.62.56l-5.61,2.65c-.45.22-.82.28-1.12.16-.29-.1-.54-.38-.76-.83l-3.6-7.66c-.14-.3-.21-.56-.21-.78,0-.23.07-.44.22-.61.14-.17.37-.32.66-.46l5.45-2.57c.33-.16.62-.2.84-.13.23.07.4.23.51.46.12.24.13.47.03.69s-.3.41-.62.56h0Z"/>
        <path class="st6" d="M130.8,173.33l-1.89.89,1.36,2.89c.2.41.24.77.15,1.08-.09.3-.3.53-.59.66-.31.15-.61.16-.9.03-.3-.12-.53-.38-.73-.79l-3.71-7.85c-.22-.46-.26-.83-.15-1.13.12-.3.4-.54.85-.77l2.65-1.24c.78-.37,1.42-.59,1.89-.67.47-.07.92-.06,1.36.07.43.13.82.35,1.15.66.35.32.63.71.85,1.2.5,1.04.54,1.98.15,2.81-.38.84-1.22,1.55-2.48,2.15l.02.02h0ZM128.1,168.89l-1.38.66,1.47,3.11,1.38-.66c.48-.23.88-.47,1.15-.74.28-.25.45-.53.51-.84.07-.32,0-.66-.17-1.04-.21-.45-.51-.76-.91-.91-.44-.16-1.13-.02-2.05.41h0Z"/>
        <path class="st6" d="M142.94,171.05l-1.09-1.05-4.15,1.95.13,1.53c.05.61.05,1.02,0,1.27-.06.24-.23.44-.54.58-.26.13-.53.14-.82.05s-.5-.26-.61-.51c-.07-.14-.1-.29-.13-.46s-.05-.41-.07-.73l-.51-7.84c0-.23-.03-.5-.06-.81-.02-.32,0-.59.02-.82.03-.23.13-.45.26-.64s.36-.37.63-.5c.29-.14.55-.2.79-.17s.46.08.67.2c.2.12.38.25.55.41s.4.38.68.64l5.76,5.32c.45.4.73.71.83.94.12.24.12.51,0,.79-.1.29-.3.51-.56.63-.16.07-.32.1-.46.12-.14,0-.28-.03-.4-.1s-.29-.17-.47-.33-.36-.3-.48-.44v-.03h.02ZM137.52,170.14l3.04-1.43-3.52-3.48.47,4.92h.01Z"/>
        <path class="st6" d="M147.93,164.77l-.73.35,1.54,3.27c.21.43.25.79.16,1.09-.1.29-.3.51-.6.64-.33.16-.63.17-.91.05-.29-.13-.52-.39-.71-.81l-3.7-7.84c-.21-.45-.26-.82-.16-1.11.1-.3.38-.55.83-.76l3.35-1.58c.47-.22.88-.39,1.22-.51s.68-.17,1-.17c.39,0,.76.05,1.12.17.37.14.68.33.97.61s.52.59.69.96c.37.76.44,1.46.22,2.12-.22.66-.71,1.29-1.5,1.89.46.02.94.15,1.46.37.51.22.99.48,1.46.79.46.3.85.59,1.16.88.31.28.5.48.55.61.07.14.08.29.06.46s-.09.33-.2.48c-.12.15-.26.26-.46.36-.23.12-.45.14-.66.1-.21-.03-.41-.1-.6-.22s-.46-.29-.81-.52l-1.47-.99c-.54-.37-.98-.62-1.34-.78-.36-.15-.69-.22-.97-.2-.29,0-.61.1-.98.28h-.02,0ZM147.08,159.93l-1.9.9,1.32,2.8,1.85-.86c.5-.24.89-.47,1.19-.71.3-.24.48-.52.56-.81s.03-.61-.14-.98c-.14-.28-.32-.5-.56-.64s-.52-.21-.83-.2c-.29,0-.79.18-1.5.52h0Z"/>
        <path class="st6" d="M159.35,154.34l-2.26,1.07,3.49,7.39c.2.43.25.79.16,1.08-.09.3-.29.52-.59.66-.3.15-.6.16-.89.05-.29-.13-.54-.39-.73-.81l-3.49-7.41-2.26,1.06c-.36.17-.64.22-.89.14s-.43-.24-.55-.5c-.13-.26-.14-.51-.02-.75.1-.24.32-.44.67-.6l6.56-3.1c.36-.16.66-.21.9-.14.24.07.43.24.55.48.12.26.13.51.02.75-.1.24-.33.44-.68.61h-.01Z"/>
        <path class="st6" d="M163.66,157.53l-2.31-4.91c-.2-.41-.25-.77-.16-1.07s.29-.53.59-.67c.32-.15.62-.16.91-.05s.53.38.73.81l2.37,5.01c.26.58.55,1.02.85,1.34.31.32.68.51,1.11.58.43.06.92-.05,1.52-.33.79-.38,1.27-.86,1.41-1.45.13-.59,0-1.31-.43-2.18l-2.38-5.06c-.2-.43-.25-.78-.16-1.07.09-.3.29-.52.6-.66.31-.15.61-.16.91-.05.29.12.53.38.73.81l2.31,4.89c.38.79.61,1.5.71,2.11.09.61.02,1.21-.22,1.82-.21.52-.52.97-.94,1.36-.41.39-.94.74-1.6,1.05-.78.37-1.5.6-2.14.7-.64.09-1.23.05-1.75-.14-.53-.18-.99-.52-1.43-.99-.43-.47-.83-1.09-1.19-1.87h-.02,0Z"/>
        <path class="st6" d="M177.18,150.97l-.73.35,1.55,3.28c.21.43.25.79.16,1.09-.09.29-.29.51-.6.66-.33.15-.63.17-.92.05-.28-.13-.52-.4-.71-.82l-3.7-7.84c-.21-.44-.26-.82-.16-1.11s.38-.54.83-.75l3.36-1.59c.46-.22.88-.38,1.21-.51.35-.12.68-.17,1-.18.39,0,.76.05,1.12.18.37.13.69.33.98.61s.52.6.69.97c.36.76.43,1.47.22,2.12-.21.66-.71,1.29-1.5,1.89.46.02.94.15,1.46.37.51.22,1,.48,1.46.79.46.3.85.59,1.16.88.31.28.5.48.55.61s.09.29.06.46c-.02.17-.09.33-.21.47-.1.15-.26.26-.46.36-.23.1-.45.15-.67.12-.21-.03-.41-.12-.6-.23-.2-.12-.47-.29-.82-.52l-1.47-.99c-.53-.37-.98-.62-1.34-.78-.36-.15-.68-.22-.97-.21-.29.02-.62.12-.98.28h0ZM176.33,146.15l-1.9.9,1.32,2.8,1.85-.88c.5-.23.9-.47,1.19-.71.3-.25.5-.52.58-.81s.03-.62-.13-.98c-.14-.28-.32-.5-.58-.64-.24-.15-.52-.21-.82-.21s-.79.18-1.5.52h-.02,0Z"/>
        <path class="st6" d="M189.36,140.04l-4.65,2.2,1.17,2.5,4.28-2.02c.31-.15.59-.2.81-.12.22.07.39.22.5.45s.13.45.05.67c-.09.22-.29.4-.61.55l-4.28,2.02,1.37,2.9,4.81-2.27c.32-.15.6-.2.84-.12.24.07.41.23.53.48.12.24.12.48.02.7-.09.23-.3.43-.62.58l-5.61,2.65c-.45.21-.82.26-1.12.16-.29-.12-.53-.38-.75-.83l-3.6-7.66c-.14-.3-.22-.56-.22-.79s.07-.43.22-.6c.15-.17.37-.33.66-.46l5.45-2.57c.33-.16.61-.2.84-.13s.4.22.51.46c.13.23.13.47.03.69s-.3.41-.62.56v-.02h0Z"/>
      </g>
      <path class="st6" d="M175.9,109.58l-85.67,40.4c-.54.25-1.17.02-1.44-.51-.25-.54-.02-1.19.52-1.43l85.68-40.4c.54-.25,1.17-.02,1.44.52.25.53,0,1.17-.52,1.43h-.01Z"/>
      <path class="st6" d="M187.08,133.27l-85.68,40.4c-.53.25-1.17.02-1.43-.52s-.02-1.19.52-1.43l85.66-40.4c.54-.25,1.19-.02,1.44.51.25.54.02,1.17-.51,1.43h0Z"/>
      <path class="st6" d="M177.68,119.66l-.07-1.11h0s-.86.3-.91.41c-.05.09-1,3.14-1.43,4.57h-.09c-.63.12-1.29.24-1.99.38-.06,0-.13.02-.2.03-.35.07-.69.14-1.05.21-.05,0-.12.02-.16.03-.35.07-.69.14-1.04.21h-.08c-1.34.28-2.71.58-4.01.85l-.06-1.52h.08s.09-.06.14-.07v-.03h0s0-.07-.02-.09h0s0-.02-.02-.02h-.2l-.06-1.46h.07s.12-.06.14-.08v-.03h0s0-.07-.02-.09h0s-.02-.02-.03-.02h-.12s-.02,0,0,0c.03,0-.02,0-.03.02h-.02l-.05-1.14v-.31h.02s.02-.02.03-.02h0s.1-.05.14-.07v-.03h0s0-.07-.02-.09h0s0-.01-.02-.02h-.16l-.05-1.46h.07s.1-.06.14-.08v-.03h0s0-.07-.02-.09h0s0-.02-.02-.03c-.03,0-.08,0-.12.01h-.06l-.06-1.5h0s-.29-.03-.4.08c0,0,0,.02-.02.03v.02s0,.03-.02.06c0,0,0,.02-.02.03,0,.03-.02.07-.03.1v.03c-.05.1-.09.24-.16.39v.05c-.03.07-.06.15-.09.23h0s-.03.07-.03.09h0c-.44,1.11-1.14,2.94-1.79,4.64-.16.03-.35.09-.53.16h0c-.15.05-.3.12-.43.2v.05h0v.09h0v.07c0,.15.03.38.13.62h0s.03.07.05.12v.03h0v.02c.03.07.08.14.12.21h.07c-.16.43-.31.82-.45,1.17,0,.05-.03.08-.06.14h0c-.09.23-.17.45-.24.63-.29.07-.55.13-.82.2h0c-.6.14-1.11.25-1.51.35l-.12.03-.17.05-.13.03-.14.03-.09.02c-.08.02-.13.03-.17.05-2,.53-3.47,1.55-3.28,2.28.2.74,1.98.9,3.98.37.05,0,.1-.02.17-.05l.12-.02s.07-.02.1-.03c.05,0,.1-.02.16-.05l.09-.02c.2-.05.4-.12.64-.18.09-.02.2-.06.3-.08h.05c.22-.07.44-.13.68-.2h0c.25-.08.53-.16.82-.24.14.13.31.26.5.43h0c.32.26.69.56,1.07.89-.03,0-.06.02-.06.02v.26h0v.17h0c.03.23.12.44.18.56,0,.03.03.06.05.08h0v.05s.02.02.02.03h0v.02h0c.16,0,.31,0,.47-.05h0c.2-.03.39-.08.55-.13.71.59,1.45,1.2,2.12,1.76.03.02.08.06.1.08.09.08.18.15.26.22.08.06.15.12.23.18.03.03.06.06.09.08.07.06.14.12.21.17.03.02.06.05.08.07.09.07.18.14.26.22h0c.16.13.32.25.46.37h0s.05.03.07.06h.02c.07.07.14.13.21.17h0c.13.1.25.21.35.28h0s.07.06.09.08c0,0,.02,0,.03.02.02,0,.05.03.06.05h.02l.03.02c.13.03.29-.06.37-.1.02,0,.03-.03.03-.03l-.69-1.32h0s.05-.02.06-.02h0s.07-.03.1-.06v-.02h0s0-.07-.03-.09h0l-.02-.02h-.23l-.68-1.3h.05s.08-.05.1-.06v-.02h0s0-.07-.02-.1h0s0-.02-.02-.03h-.22l-.45-.88-.22-.41s.05-.02.06-.02h0s.08-.03.1-.06v-.02h0s0-.07-.02-.09h0v-.02h-.24l-.67-1.3h0s.03,0,.05-.02h0s.08-.05.1-.06v-.03h0s0-.07-.02-.09h0l-.02-.02h-.24l-.69-1.32c1.31-.4,2.68-.83,4.02-1.27h0s.08-.03.14-.05c.3-.09.6-.2.9-.29.05-.02.1-.05.16-.06.31-.1.62-.21.93-.31.1-.03.2-.07.29-.1.31-.1.61-.2.91-.3.03,0,.07-.02.1-.03.29-.1.56-.2.84-.29.02,0,.05-.02.08-.03.1.09.21.2.32.31,0,.02.03.03.06.05h0c.66.63,1.54,1.46,2.2,2.07.02.03.05.05.07.08.06.06.12.1.17.16.03.02.05.05.07.06.12.12.23.21.32.3l.02.02s.08.08.12.1t0,0s.06.06.08.07h0s.03.02.03.03c.07.06.51,0,.78-.05h0c.13-.02.23-.03.23-.03l-.48-1h0l-1.49-3.09v-.03s.05-.03.09-.05c.05-.02.1-.05.14-.06.12-.05.22-.1.31-.14,0-.09-.02-.18-.05-.29s-.06-.18-.1-.26h-.58l-.22-3.45h0l.06.14.03.05h0Z"/>
    </g>
    <g>
      <path class="st6" d="M92.63,138.64c.46,1.01.01,2.2-.99,2.67-1.01.46-2.21.02-2.67-.99s-.01-2.2,1-2.67c1.01-.47,2.21-.02,2.67.99h-.01Z"/>
      <path class="st6" d="M114.27,128.76c.46,1,.01,2.2-.99,2.66-1.01.46-2.21,0-2.67-.99-.46-1.01-.01-2.2,1-2.67,1.01-.46,2.2-.02,2.66,1h0Z"/>
      <path class="st6" d="M103.45,133.7c.46,1.01.02,2.2-.99,2.67-1.01.46-2.2,0-2.66-.99-.46-1.01-.01-2.2.99-2.67,1-.46,2.2,0,2.66.99Z"/>
      <path class="st6" d="M125.09,123.82c.46,1.01.01,2.21-1,2.67-1.01.46-2.2,0-2.66-1-.46-1.01-.01-2.2.99-2.67,1.01-.46,2.2,0,2.67.99h0Z"/>
      <path class="st6" d="M135.91,118.88c.46,1.01.02,2.2-.99,2.66s-2.2.01-2.66-1c-.46-1-.02-2.2,1-2.66,1-.46,2.2-.02,2.66.99h-.01Z"/>
      <path class="st6" d="M157.54,109c.46,1.01.02,2.21-.99,2.66-1.01.46-2.21.02-2.66-.99-.46-1.01,0-2.2,1-2.66,1.01-.46,2.2-.01,2.66.99h-.01Z"/>
      <path class="st6" d="M146.73,113.94c.46,1.01.02,2.2-1,2.66-1,.46-2.2.01-2.66-.99-.46-1.01-.02-2.2.99-2.67,1.01-.46,2.2-.01,2.66.99h.01Z"/>
      <path class="st6" d="M168.37,104.05c.46,1,.02,2.2-1,2.66-1,.46-2.2.02-2.66-.99s-.02-2.2.99-2.66c1.01-.47,2.2-.02,2.67.99h0Z"/>
    </g>
  </g>
  <g class="st14">
    <path class="st0" d="M142.2,275.53l-116.47-37.98c-.53-.16-.8-.73-.63-1.26l20.77-63.71c.17-.52.74-.82,1.26-.64l116.47,37.98c.52.17.8.73.64,1.26l-20.77,63.71c-.17.52-.73.8-1.26.64h-.01ZM27.3,235.98l114.57,37.35,20.15-61.81-114.57-37.35-20.15,61.81Z"/>
    <g>
      <path class="st0" d="M37.4,231.58c-.21.63-.88.97-1.52.77-.63-.21-.99-.88-.77-1.52.22-.63.89-.98,1.52-.77.63.21.97.89.77,1.52Z"/>
      <path class="st0" d="M52.96,236.65c-.21.63-.89.98-1.51.78-.63-.21-.97-.89-.77-1.52.21-.63.88-.99,1.51-.78s.97.89.77,1.52Z"/>
      <path class="st0" d="M45.18,234.12c-.21.63-.88.97-1.51.77s-.98-.89-.78-1.52c.21-.63.89-.97,1.52-.77s.97.89.77,1.52Z"/>
      <path class="st0" d="M60.75,239.19c-.22.63-.89.98-1.52.77-.62-.2-.97-.88-.77-1.52.21-.63.89-.98,1.52-.77.63.21.97.89.78,1.52h-.01Z"/>
      <path class="st0" d="M68.55,241.74c-.21.63-.89.97-1.52.77s-.97-.89-.77-1.52c.2-.62.89-.97,1.51-.77.63.21.97.89.78,1.52Z"/>
      <path class="st0" d="M84.1,246.81c-.21.63-.89.97-1.51.77-.63-.21-.97-.89-.77-1.52.21-.63.88-.99,1.51-.78.63.21.98.89.77,1.52h0Z"/>
      <path class="st0" d="M76.31,244.26c-.21.63-.88.99-1.51.77-.63-.21-.99-.88-.78-1.51.21-.63.89-.98,1.52-.77.63.21.97.88.77,1.51Z"/>
      <path class="st0" d="M91.88,249.34c-.21.63-.89.98-1.52.78s-.97-.89-.77-1.52c.21-.63.89-.97,1.51-.77.63.21.97.89.78,1.51h0Z"/>
      <path class="st0" d="M99.67,251.87c-.22.63-.89.97-1.52.77s-.97-.88-.78-1.51c.21-.63.89-.98,1.51-.77.63.21.99.88.78,1.51h.01Z"/>
      <path class="st0" d="M115.23,256.95c-.21.63-.88.99-1.51.78-.63-.21-.98-.89-.78-1.52.21-.63.89-.98,1.52-.77.63.21.98.89.77,1.51h0Z"/>
      <path class="st0" d="M107.46,254.42c-.21.63-.89.97-1.52.77s-.97-.89-.78-1.51c.21-.63.89-.98,1.52-.78s.97.89.77,1.52h.01s0,0,0,0Z"/>
      <path class="st0" d="M123.02,259.49c-.21.63-.89.97-1.52.77s-.97-.88-.77-1.51.88-.97,1.51-.77c.63.21.97.88.78,1.51Z"/>
      <path class="st0" d="M130.81,262.03c-.21.63-.89.97-1.51.77-.63-.21-.98-.89-.78-1.52.2-.62.89-.97,1.51-.77.63.21.98.89.78,1.52Z"/>
      <path class="st0" d="M138.6,264.57c-.21.63-.89.98-1.51.78-.63-.21-.98-.89-.78-1.52.21-.63.89-.98,1.52-.77.63.21.97.89.77,1.51h0Z"/>
    </g>
  </g>
  <g>
    <path class="st0" d="M49.84,198.88l3.67-10.8,2.2.75-3.06,8.96,5.47,1.86-.62,1.84-7.66-2.61h-.01s0,0,0,0Z"/>
    <path class="st0" d="M59.01,202l3.7-10.9,2.2.75-3.7,10.9-2.2-.75Z"/>
    <path class="st0" d="M66.08,204.4l-.19-12.22,2.38.81.02,9,5.41-7.16,2.34.79-7.6,9.56-2.35-.8v.03h0,0Z"/>
    <path class="st0" d="M73.44,206.91l3.7-10.9,8.07,2.75-.63,1.84-5.87-2-.82,2.42,5.47,1.86-.62,1.84-5.47-1.86-1.01,2.97,6.08,2.08-.62,1.84-8.28-2.82h-.01Z"/>
    <path class="st0" d="M90.41,212.69l1.56-4.58-1.84-7.66,2.58.88,1.1,5.18,3.97-3.45,2.53.86-6.15,4.96-1.56,4.57-2.19-.74h0Z"/>
    <path class="st0" d="M99.09,209.63c.37-1.11.86-1.99,1.45-2.63.44-.47.95-.85,1.52-1.15s1.15-.47,1.74-.5c.78-.05,1.61.07,2.49.37,1.61.54,2.72,1.48,3.34,2.8s.64,2.87.03,4.65c-.59,1.76-1.55,2.97-2.83,3.63-1.29.66-2.73.72-4.34.18-1.62-.56-2.74-1.48-3.36-2.8s-.63-2.84-.04-4.57v.03h0,0ZM101.37,210.33c-.42,1.23-.46,2.26-.1,3.09.35.83.97,1.39,1.84,1.7.88.3,1.71.23,2.49-.21s1.38-1.29,1.81-2.55c.42-1.25.47-2.27.13-3.07-.33-.8-.96-1.35-1.87-1.66s-1.74-.24-2.51.18c-.76.43-1.36,1.28-1.8,2.53h.01Z"/>
    <path class="st0" d="M113.22,208.3l2.2.75-2.01,5.9c-.32.94-.49,1.55-.54,1.85-.06.48.05.91.3,1.31.26.39.7.69,1.32.91s1.14.25,1.54.1c.41-.15.71-.4.89-.74.19-.35.44-.96.73-1.82l2.05-6.02,2.2.75-1.94,5.72c-.44,1.31-.82,2.22-1.12,2.71-.3.5-.68.88-1.12,1.14s-.98.41-1.59.45-1.35-.09-2.21-.38c-1.03-.35-1.79-.74-2.25-1.16-.46-.42-.77-.88-.96-1.37-.18-.49-.25-.96-.21-1.42.07-.67.31-1.62.73-2.83l1.98-5.81h0Z"/>
    <path class="st0" d="M120.54,222.93l3.7-10.9,2.14.73,1.98,8.79,2.47-7.27,2.04.69-3.7,10.9-2.2-.75-1.97-8.59-2.42,7.1-2.04-.69h0Z"/>
    <path class="st0" d="M137.93,224.39l.62-1.84,4.74,1.62-1.47,4.34c-.61.29-1.41.45-2.4.5s-1.93-.1-2.82-.39c-1.14-.39-2.05-.96-2.74-1.73s-1.09-1.66-1.21-2.7c-.13-1.03,0-2.08.35-3.11.39-1.13.96-2.06,1.75-2.78.77-.72,1.7-1.16,2.78-1.32.82-.12,1.76-.01,2.79.35,1.35.46,2.31,1.11,2.88,1.93.57.82.79,1.78.67,2.85l-2.32-.34c.03-.59-.12-1.11-.44-1.56-.31-.45-.8-.78-1.43-1-.96-.32-1.83-.3-2.6.13s-1.37,1.23-1.78,2.42c-.44,1.29-.48,2.36-.13,3.2.35.84,1,1.42,1.93,1.74.46.15.95.22,1.48.2s.99-.11,1.41-.25l.47-1.39-2.52-.86h-.01s0-.01,0-.01Z"/>
    <path class="st0" d="M48.56,218.82l3.67-10.8,2.2.75-3.06,8.96,5.47,1.86-.62,1.84-7.66-2.61h-.01s0,0,0,0Z"/>
    <path class="st0" d="M57.73,221.93l3.7-10.9,2.2.75-3.7,10.9-2.2-.75Z"/>
    <path class="st0" d="M64.79,224.35l-.19-12.22,2.38.81.02,9,5.41-7.16,2.34.79-7.61,9.57-2.35-.8h0Z"/>
    <path class="st0" d="M72.16,226.85l3.7-10.9,8.07,2.75-.63,1.85-5.87-2-.82,2.42,5.47,1.86-.63,1.84-5.47-1.86-1.01,2.97,6.09,2.08-.63,1.84-8.28-2.82h0Z"/>
    <path class="st0" d="M86.56,231.75l3.7-10.9,7.47,2.54-.63,1.85-5.27-1.79-.88,2.58,4.55,1.55-.63,1.84-4.55-1.55-1.57,4.63-2.2-.75h.01s0,0,0,0Z"/>
    <path class="st0" d="M95.85,234.91l3.7-10.9,4.63,1.57c1.17.39,1.98.78,2.43,1.15.47.37.77.87.92,1.47.14.61.11,1.24-.11,1.88-.27.82-.75,1.4-1.4,1.77-.66.37-1.5.46-2.5.28.38.43.67.88.86,1.32.2.44.41,1.17.65,2.2l.61,2.58-2.63-.9-.79-2.91c-.28-1.05-.48-1.71-.61-2-.13-.29-.3-.52-.51-.67-.2-.16-.56-.32-1.06-.49l-.45-.15-1.55,4.55-2.2-.75h0ZM100.19,229.38l1.63.56c1.06.36,1.73.54,2.02.53.3,0,.55-.08.77-.25.22-.17.39-.41.5-.74.12-.36.13-.7,0-.99s-.35-.53-.68-.71c-.17-.08-.7-.28-1.6-.58l-1.71-.59s-.93,2.76-.93,2.76Z"/>
    <path class="st0" d="M106.83,238.65l3.7-10.9,8.07,2.75-.63,1.84-5.87-2-.82,2.42,5.47,1.86-.63,1.84-5.47-1.86-1.01,2.97,6.08,2.08-.62,1.84-8.28-2.82h0Z"/>
    <path class="st0" d="M116.97,242.1l3.7-10.9,8.07,2.75-.63,1.85-5.87-2-.82,2.42,5.47,1.86-.63,1.84-5.47-1.86-1.01,2.97,6.08,2.08-.62,1.84-8.28-2.82h0Z"/>
    <path class="st0" d="M127.47,245.68l.71-2.09,2.09.71-.71,2.09-2.09-.71ZM128.88,243.02l1.34-5.71.88-2.55,2.26.76-.88,2.55-2.42,5.34-1.18-.4Z"/>
  </g>
</svg>